<mxfile host="Electron" agent="Mozilla/5.0 (X11; Linux x86_64) AppleWebKit/537.36 (KHTML, like Gecko) draw.io/27.0.9 Chrome/134.0.6998.205 Electron/35.4.0 Safari/537.36" version="27.0.9">
  <diagram name="Page-1" id="alol02xvmQifz5ktD5sO">
    <mxGraphModel dx="3587" dy="1368" grid="1" gridSize="10" guides="1" tooltips="1" connect="1" arrows="1" fold="1" page="1" pageScale="1" pageWidth="850" pageHeight="1100" math="0" shadow="0">
      <root>
        <mxCell id="0" />
        <mxCell id="1" parent="0" />
        <mxCell id="82-weyaPdRbn6HKz-jmK-15" value="&lt;font style=&quot;font-size: 19px;&quot;&gt;&lt;b&gt;ROS2&lt;/b&gt;&lt;/font&gt;" style="rounded=0;whiteSpace=wrap;html=1;align=left;verticalAlign=top;fillColor=#fff2cc;strokeColor=#d6b656;" vertex="1" parent="1">
          <mxGeometry x="-1320" y="1170" width="780" height="920" as="geometry" />
        </mxCell>
        <mxCell id="82-weyaPdRbn6HKz-jmK-22" value="各种机器人/设备" style="rounded=0;whiteSpace=wrap;html=1;fillColor=#dae8fc;strokeColor=#6c8ebf;" vertex="1" parent="1">
          <mxGeometry x="-480" y="1407.5" width="120" height="60" as="geometry" />
        </mxCell>
        <mxCell id="82-weyaPdRbn6HKz-jmK-23" value="各种仿真平台" style="rounded=0;whiteSpace=wrap;html=1;fillColor=#dae8fc;strokeColor=#6c8ebf;" vertex="1" parent="1">
          <mxGeometry x="-480" y="1875" width="120" height="60" as="geometry" />
        </mxCell>
        <mxCell id="82-weyaPdRbn6HKz-jmK-24" value="" style="group" vertex="1" connectable="0" parent="1">
          <mxGeometry x="-740" y="1760" width="165" height="290" as="geometry" />
        </mxCell>
        <mxCell id="82-weyaPdRbn6HKz-jmK-25" value="&lt;font style=&quot;font-size: 18px;&quot;&gt;仿真接口&lt;/font&gt;" style="rounded=0;whiteSpace=wrap;html=1;align=left;verticalAlign=top;fillColor=#d5e8d4;strokeColor=#82b366;" vertex="1" parent="82-weyaPdRbn6HKz-jmK-24">
          <mxGeometry width="165" height="290" as="geometry" />
        </mxCell>
        <mxCell id="82-weyaPdRbn6HKz-jmK-26" value="SO100(假)" style="rounded=0;whiteSpace=wrap;html=1;fillColor=#dae8fc;strokeColor=#6c8ebf;" vertex="1" parent="82-weyaPdRbn6HKz-jmK-24">
          <mxGeometry x="22.5" y="50" width="120" height="60" as="geometry" />
        </mxCell>
        <mxCell id="82-weyaPdRbn6HKz-jmK-27" value="SO101(假)" style="rounded=0;whiteSpace=wrap;html=1;fillColor=#dae8fc;strokeColor=#6c8ebf;" vertex="1" parent="82-weyaPdRbn6HKz-jmK-24">
          <mxGeometry x="22.5" y="130" width="120" height="60" as="geometry" />
        </mxCell>
        <mxCell id="82-weyaPdRbn6HKz-jmK-28" value="etc." style="rounded=0;whiteSpace=wrap;html=1;fillColor=#dae8fc;strokeColor=#6c8ebf;" vertex="1" parent="82-weyaPdRbn6HKz-jmK-24">
          <mxGeometry x="22.5" y="210" width="120" height="60" as="geometry" />
        </mxCell>
        <mxCell id="82-weyaPdRbn6HKz-jmK-102" value="" style="group" vertex="1" connectable="0" parent="1">
          <mxGeometry x="-1002.5" y="1527.5" width="165" height="220" as="geometry" />
        </mxCell>
        <mxCell id="82-weyaPdRbn6HKz-jmK-98" value="&lt;span style=&quot;font-size: 18px;&quot;&gt;硬件控制&lt;/span&gt;" style="rounded=0;whiteSpace=wrap;html=1;align=left;verticalAlign=top;fillColor=#d5e8d4;strokeColor=#82b366;container=0;" vertex="1" parent="82-weyaPdRbn6HKz-jmK-102">
          <mxGeometry width="165" height="220" as="geometry" />
        </mxCell>
        <mxCell id="82-weyaPdRbn6HKz-jmK-99" value="指令下发" style="rounded=0;whiteSpace=wrap;html=1;fillColor=#f8cecc;strokeColor=#b85450;container=0;" vertex="1" parent="82-weyaPdRbn6HKz-jmK-102">
          <mxGeometry x="22.5" y="50" width="120" height="60" as="geometry" />
        </mxCell>
        <mxCell id="82-weyaPdRbn6HKz-jmK-100" value="数据获取" style="rounded=0;whiteSpace=wrap;html=1;fillColor=#f8cecc;strokeColor=#b85450;container=0;" vertex="1" parent="82-weyaPdRbn6HKz-jmK-102">
          <mxGeometry x="22.5" y="130" width="120" height="60" as="geometry" />
        </mxCell>
        <mxCell id="82-weyaPdRbn6HKz-jmK-54" value="&lt;span style=&quot;font-size: 19px;&quot;&gt;&lt;b&gt;Lerobot&lt;/b&gt;&lt;/span&gt;" style="rounded=0;whiteSpace=wrap;html=1;align=left;verticalAlign=top;container=0;fillColor=#fff2cc;strokeColor=#d6b656;" vertex="1" parent="1">
          <mxGeometry x="-1320" y="170" width="840" height="750" as="geometry" />
        </mxCell>
        <mxCell id="82-weyaPdRbn6HKz-jmK-105" value="&lt;span style=&quot;font-size: 18px;&quot;&gt;资源&lt;/span&gt;" style="rounded=0;whiteSpace=wrap;html=1;align=left;verticalAlign=top;fillColor=#d5e8d4;strokeColor=#82b366;container=0;" vertex="1" parent="1">
          <mxGeometry x="-1540" y="420" width="165" height="230" as="geometry" />
        </mxCell>
        <mxCell id="82-weyaPdRbn6HKz-jmK-106" value="HF hub" style="rounded=0;whiteSpace=wrap;html=1;fillColor=#dae8fc;strokeColor=#6c8ebf;container=0;" vertex="1" parent="1">
          <mxGeometry x="-1517.5" y="470" width="120" height="60" as="geometry" />
        </mxCell>
        <mxCell id="82-weyaPdRbn6HKz-jmK-107" value="本地存储" style="rounded=0;whiteSpace=wrap;html=1;fillColor=#dae8fc;strokeColor=#6c8ebf;container=0;" vertex="1" parent="1">
          <mxGeometry x="-1517.5" y="550" width="120" height="60" as="geometry" />
        </mxCell>
        <mxCell id="82-weyaPdRbn6HKz-jmK-109" value="&lt;font style=&quot;font-size: 16px;&quot;&gt;Cli&lt;/font&gt;" style="rounded=0;whiteSpace=wrap;html=1;fillColor=#f8cecc;strokeColor=#b85450;" vertex="1" parent="1">
          <mxGeometry x="-1210" y="150" width="150" height="50" as="geometry" />
        </mxCell>
        <mxCell id="82-weyaPdRbn6HKz-jmK-111" style="rounded=0;orthogonalLoop=1;jettySize=auto;html=1;entryX=1;entryY=0.5;entryDx=0;entryDy=0;endArrow=none;startFill=0;" edge="1" parent="1" source="82-weyaPdRbn6HKz-jmK-65" target="82-weyaPdRbn6HKz-jmK-105">
          <mxGeometry relative="1" as="geometry" />
        </mxCell>
        <mxCell id="82-weyaPdRbn6HKz-jmK-112" style="rounded=0;orthogonalLoop=1;jettySize=auto;html=1;entryX=1;entryY=0.5;entryDx=0;entryDy=0;endArrow=none;startFill=0;" edge="1" parent="1" source="82-weyaPdRbn6HKz-jmK-75" target="82-weyaPdRbn6HKz-jmK-105">
          <mxGeometry relative="1" as="geometry" />
        </mxCell>
        <mxCell id="82-weyaPdRbn6HKz-jmK-65" value="&lt;span style=&quot;font-size: 18px;&quot;&gt;模型管理&lt;/span&gt;" style="rounded=0;whiteSpace=wrap;html=1;align=left;verticalAlign=top;fillColor=#d5e8d4;strokeColor=#82b366;container=0;" vertex="1" parent="1">
          <mxGeometry x="-1280" y="240" width="340" height="290" as="geometry" />
        </mxCell>
        <mxCell id="82-weyaPdRbn6HKz-jmK-66" value="模型下载" style="rounded=0;whiteSpace=wrap;html=1;fillColor=#dae8fc;strokeColor=#6c8ebf;container=0;" vertex="1" parent="1">
          <mxGeometry x="-1257.5" y="290" width="120" height="60" as="geometry" />
        </mxCell>
        <mxCell id="82-weyaPdRbn6HKz-jmK-67" value="模型加载" style="rounded=0;whiteSpace=wrap;html=1;fillColor=#dae8fc;strokeColor=#6c8ebf;container=0;" vertex="1" parent="1">
          <mxGeometry x="-1257.5" y="370" width="120" height="60" as="geometry" />
        </mxCell>
        <mxCell id="82-weyaPdRbn6HKz-jmK-68" value="模型配置" style="rounded=0;whiteSpace=wrap;html=1;fillColor=#dae8fc;strokeColor=#6c8ebf;container=0;" vertex="1" parent="1">
          <mxGeometry x="-1257.5" y="450" width="120" height="60" as="geometry" />
        </mxCell>
        <mxCell id="82-weyaPdRbn6HKz-jmK-113" style="rounded=0;orthogonalLoop=1;jettySize=auto;html=1;entryX=0;entryY=0.5;entryDx=0;entryDy=0;endArrow=none;startFill=0;" edge="1" parent="1" source="82-weyaPdRbn6HKz-jmK-9" target="82-weyaPdRbn6HKz-jmK-22">
          <mxGeometry relative="1" as="geometry" />
        </mxCell>
        <mxCell id="82-weyaPdRbn6HKz-jmK-114" style="rounded=0;orthogonalLoop=1;jettySize=auto;html=1;entryX=0;entryY=0.5;entryDx=0;entryDy=0;endArrow=none;startFill=0;" edge="1" parent="1" source="82-weyaPdRbn6HKz-jmK-25" target="82-weyaPdRbn6HKz-jmK-23">
          <mxGeometry relative="1" as="geometry" />
        </mxCell>
        <mxCell id="82-weyaPdRbn6HKz-jmK-127" style="edgeStyle=orthogonalEdgeStyle;rounded=0;orthogonalLoop=1;jettySize=auto;html=1;entryX=0.5;entryY=1;entryDx=0;entryDy=0;" edge="1" parent="1" source="82-weyaPdRbn6HKz-jmK-75" target="82-weyaPdRbn6HKz-jmK-117">
          <mxGeometry relative="1" as="geometry" />
        </mxCell>
        <mxCell id="82-weyaPdRbn6HKz-jmK-75" value="&lt;span style=&quot;font-size: 18px;&quot;&gt;数据集管理&lt;/span&gt;" style="rounded=0;whiteSpace=wrap;html=1;align=left;verticalAlign=top;fillColor=#d5e8d4;strokeColor=#82b366;container=0;" vertex="1" parent="1">
          <mxGeometry x="-1280" y="580" width="340" height="290" as="geometry" />
        </mxCell>
        <mxCell id="82-weyaPdRbn6HKz-jmK-76" value="数据集下载" style="rounded=0;whiteSpace=wrap;html=1;fillColor=#dae8fc;strokeColor=#6c8ebf;container=0;" vertex="1" parent="1">
          <mxGeometry x="-1257.5" y="630" width="120" height="60" as="geometry" />
        </mxCell>
        <mxCell id="82-weyaPdRbn6HKz-jmK-77" value="数据集加载" style="rounded=0;whiteSpace=wrap;html=1;fillColor=#dae8fc;strokeColor=#6c8ebf;container=0;" vertex="1" parent="1">
          <mxGeometry x="-1257.5" y="710" width="120" height="60" as="geometry" />
        </mxCell>
        <mxCell id="82-weyaPdRbn6HKz-jmK-78" value="数据集预览" style="rounded=0;whiteSpace=wrap;html=1;fillColor=#dae8fc;strokeColor=#6c8ebf;container=0;" vertex="1" parent="1">
          <mxGeometry x="-1257.5" y="790" width="120" height="60" as="geometry" />
        </mxCell>
        <mxCell id="82-weyaPdRbn6HKz-jmK-115" value="数据集共享" style="rounded=0;whiteSpace=wrap;html=1;fillColor=#dae8fc;strokeColor=#6c8ebf;container=0;" vertex="1" parent="1">
          <mxGeometry x="-1085" y="630" width="120" height="60" as="geometry" />
        </mxCell>
        <mxCell id="82-weyaPdRbn6HKz-jmK-116" value="数据集 -&amp;gt; 特征映射" style="rounded=0;whiteSpace=wrap;html=1;fillColor=#dae8fc;strokeColor=#6c8ebf;container=0;" vertex="1" parent="1">
          <mxGeometry x="-1085" y="710" width="120" height="60" as="geometry" />
        </mxCell>
        <mxCell id="82-weyaPdRbn6HKz-jmK-117" value="模型训练" style="rounded=0;whiteSpace=wrap;html=1;fillColor=#dae8fc;strokeColor=#6c8ebf;container=0;" vertex="1" parent="1">
          <mxGeometry x="-1085" y="290" width="120" height="60" as="geometry" />
        </mxCell>
        <mxCell id="82-weyaPdRbn6HKz-jmK-123" value="各种机器人/设备" style="rounded=0;whiteSpace=wrap;html=1;fillColor=#dae8fc;strokeColor=#6c8ebf;container=0;" vertex="1" parent="1">
          <mxGeometry x="-837.5" y="960" width="120" height="60" as="geometry" />
        </mxCell>
        <mxCell id="82-weyaPdRbn6HKz-jmK-124" style="edgeStyle=orthogonalEdgeStyle;rounded=0;orthogonalLoop=1;jettySize=auto;html=1;entryX=0.5;entryY=0;entryDx=0;entryDy=0;endArrow=none;startFill=0;" edge="1" parent="1" source="82-weyaPdRbn6HKz-jmK-86" target="82-weyaPdRbn6HKz-jmK-123">
          <mxGeometry relative="1" as="geometry">
            <Array as="points">
              <mxPoint x="-777" y="915" />
            </Array>
          </mxGeometry>
        </mxCell>
        <mxCell id="82-weyaPdRbn6HKz-jmK-86" value="&lt;span style=&quot;font-size: 18px;&quot;&gt;机器人控制&lt;/span&gt;" style="rounded=0;whiteSpace=wrap;html=1;align=left;verticalAlign=top;fillColor=#d5e8d4;strokeColor=#82b366;container=0;" vertex="1" parent="1">
          <mxGeometry x="-860" y="580" width="330" height="290" as="geometry" />
        </mxCell>
        <mxCell id="82-weyaPdRbn6HKz-jmK-87" value="标定" style="rounded=0;whiteSpace=wrap;html=1;fillColor=#dae8fc;strokeColor=#6c8ebf;container=0;" vertex="1" parent="1">
          <mxGeometry x="-837.5" y="630" width="120" height="60" as="geometry" />
        </mxCell>
        <mxCell id="82-weyaPdRbn6HKz-jmK-88" value="遥控" style="rounded=0;whiteSpace=wrap;html=1;fillColor=#dae8fc;strokeColor=#6c8ebf;container=0;" vertex="1" parent="1">
          <mxGeometry x="-837.5" y="710" width="120" height="60" as="geometry" />
        </mxCell>
        <mxCell id="82-weyaPdRbn6HKz-jmK-89" value="记录/重播" style="rounded=0;whiteSpace=wrap;html=1;fillColor=#dae8fc;strokeColor=#6c8ebf;container=0;" vertex="1" parent="1">
          <mxGeometry x="-837.5" y="790" width="117.5" height="60" as="geometry" />
        </mxCell>
        <mxCell id="82-weyaPdRbn6HKz-jmK-126" style="edgeStyle=orthogonalEdgeStyle;rounded=0;orthogonalLoop=1;jettySize=auto;html=1;entryX=1;entryY=0.5;entryDx=0;entryDy=0;" edge="1" parent="1" source="82-weyaPdRbn6HKz-jmK-80" target="82-weyaPdRbn6HKz-jmK-117">
          <mxGeometry relative="1" as="geometry" />
        </mxCell>
        <mxCell id="82-weyaPdRbn6HKz-jmK-80" value="&lt;span style=&quot;font-size: 18px;&quot;&gt;环境管理&lt;/span&gt;" style="rounded=0;whiteSpace=wrap;html=1;align=left;verticalAlign=top;fillColor=#d5e8d4;strokeColor=#82b366;container=0;" vertex="1" parent="1">
          <mxGeometry x="-860" y="240" width="330" height="290" as="geometry" />
        </mxCell>
        <mxCell id="82-weyaPdRbn6HKz-jmK-81" value="环境准备" style="rounded=0;whiteSpace=wrap;html=1;fillColor=#dae8fc;strokeColor=#6c8ebf;container=0;" vertex="1" parent="1">
          <mxGeometry x="-837.5" y="290" width="120" height="60" as="geometry" />
        </mxCell>
        <mxCell id="82-weyaPdRbn6HKz-jmK-82" value="环境-&amp;gt;特征映射" style="rounded=0;whiteSpace=wrap;html=1;fillColor=#dae8fc;strokeColor=#6c8ebf;container=0;" vertex="1" parent="1">
          <mxGeometry x="-837.5" y="370" width="120" height="60" as="geometry" />
        </mxCell>
        <mxCell id="82-weyaPdRbn6HKz-jmK-83" value="模型评估" style="rounded=0;whiteSpace=wrap;html=1;fillColor=#dae8fc;strokeColor=#6c8ebf;container=0;" vertex="1" parent="1">
          <mxGeometry x="-837.5" y="450" width="120" height="60" as="geometry" />
        </mxCell>
        <mxCell id="82-weyaPdRbn6HKz-jmK-125" value="数据获取" style="rounded=0;whiteSpace=wrap;html=1;fillColor=#dae8fc;strokeColor=#6c8ebf;container=0;" vertex="1" parent="1">
          <mxGeometry x="-680" y="630" width="120" height="60" as="geometry" />
        </mxCell>
        <mxCell id="82-weyaPdRbn6HKz-jmK-9" value="&lt;font style=&quot;font-size: 18px;&quot;&gt;硬件接口&lt;/font&gt;" style="rounded=0;whiteSpace=wrap;html=1;align=left;verticalAlign=top;fillColor=#d5e8d4;strokeColor=#82b366;container=0;" vertex="1" parent="1">
          <mxGeometry x="-740" y="1255" width="165" height="365" as="geometry" />
        </mxCell>
        <mxCell id="82-weyaPdRbn6HKz-jmK-10" value="SO100" style="rounded=0;whiteSpace=wrap;html=1;fillColor=#dae8fc;strokeColor=#6c8ebf;container=0;" vertex="1" parent="1">
          <mxGeometry x="-717.5" y="1305" width="120" height="60" as="geometry" />
        </mxCell>
        <mxCell id="82-weyaPdRbn6HKz-jmK-11" value="SO101，etc.." style="rounded=0;whiteSpace=wrap;html=1;fillColor=#dae8fc;strokeColor=#6c8ebf;container=0;" vertex="1" parent="1">
          <mxGeometry x="-717.5" y="1385" width="120" height="60" as="geometry" />
        </mxCell>
        <mxCell id="82-weyaPdRbn6HKz-jmK-12" value="控制服务" style="rounded=0;whiteSpace=wrap;html=1;fillColor=#f8cecc;strokeColor=#b85450;container=0;" vertex="1" parent="1">
          <mxGeometry x="-717.5" y="1465" width="120" height="60" as="geometry" />
        </mxCell>
        <mxCell id="82-weyaPdRbn6HKz-jmK-135" value="传感器数据" style="rounded=0;whiteSpace=wrap;html=1;fillColor=#f8cecc;strokeColor=#b85450;container=0;" vertex="1" parent="1">
          <mxGeometry x="-717.5" y="1540" width="120" height="60" as="geometry" />
        </mxCell>
        <mxCell id="82-weyaPdRbn6HKz-jmK-136" style="edgeStyle=orthogonalEdgeStyle;rounded=0;orthogonalLoop=1;jettySize=auto;html=1;entryX=0;entryY=0.548;entryDx=0;entryDy=0;entryPerimeter=0;" edge="1" parent="1" source="82-weyaPdRbn6HKz-jmK-98" target="82-weyaPdRbn6HKz-jmK-9">
          <mxGeometry relative="1" as="geometry" />
        </mxCell>
        <mxCell id="82-weyaPdRbn6HKz-jmK-137" value="Action" style="edgeLabel;html=1;align=center;verticalAlign=middle;resizable=0;points=[];" vertex="1" connectable="0" parent="82-weyaPdRbn6HKz-jmK-136">
          <mxGeometry x="0.0108" y="5" relative="1" as="geometry">
            <mxPoint x="1" as="offset" />
          </mxGeometry>
        </mxCell>
        <mxCell id="82-weyaPdRbn6HKz-jmK-139" style="edgeStyle=orthogonalEdgeStyle;rounded=0;orthogonalLoop=1;jettySize=auto;html=1;entryX=-0.006;entryY=0.566;entryDx=0;entryDy=0;entryPerimeter=0;" edge="1" parent="1" source="82-weyaPdRbn6HKz-jmK-98" target="82-weyaPdRbn6HKz-jmK-25">
          <mxGeometry relative="1" as="geometry" />
        </mxCell>
        <mxCell id="82-weyaPdRbn6HKz-jmK-140" value="Action" style="edgeLabel;html=1;align=center;verticalAlign=middle;resizable=0;points=[];" vertex="1" connectable="0" parent="82-weyaPdRbn6HKz-jmK-139">
          <mxGeometry x="-0.0045" y="3" relative="1" as="geometry">
            <mxPoint y="1" as="offset" />
          </mxGeometry>
        </mxCell>
        <mxCell id="82-weyaPdRbn6HKz-jmK-155" style="edgeStyle=orthogonalEdgeStyle;rounded=0;orthogonalLoop=1;jettySize=auto;html=1;entryX=0;entryY=0.5;entryDx=0;entryDy=0;" edge="1" parent="1" source="82-weyaPdRbn6HKz-jmK-142" target="82-weyaPdRbn6HKz-jmK-100">
          <mxGeometry relative="1" as="geometry" />
        </mxCell>
        <mxCell id="82-weyaPdRbn6HKz-jmK-156" value="Request" style="edgeLabel;html=1;align=center;verticalAlign=middle;resizable=0;points=[];" vertex="1" connectable="0" parent="82-weyaPdRbn6HKz-jmK-155">
          <mxGeometry x="-0.0593" y="-3" relative="1" as="geometry">
            <mxPoint as="offset" />
          </mxGeometry>
        </mxCell>
        <mxCell id="82-weyaPdRbn6HKz-jmK-158" style="edgeStyle=orthogonalEdgeStyle;rounded=0;orthogonalLoop=1;jettySize=auto;html=1;" edge="1" parent="1" source="82-weyaPdRbn6HKz-jmK-142" target="82-weyaPdRbn6HKz-jmK-152">
          <mxGeometry relative="1" as="geometry" />
        </mxCell>
        <mxCell id="82-weyaPdRbn6HKz-jmK-159" value="Action" style="edgeLabel;html=1;align=center;verticalAlign=middle;resizable=0;points=[];" vertex="1" connectable="0" parent="82-weyaPdRbn6HKz-jmK-158">
          <mxGeometry x="0.1699" relative="1" as="geometry">
            <mxPoint as="offset" />
          </mxGeometry>
        </mxCell>
        <mxCell id="82-weyaPdRbn6HKz-jmK-142" value="&lt;span style=&quot;font-size: 18px;&quot;&gt;环境管理&lt;/span&gt;" style="rounded=0;whiteSpace=wrap;html=1;align=left;verticalAlign=top;fillColor=#d5e8d4;strokeColor=#82b366;container=0;" vertex="1" parent="1">
          <mxGeometry x="-1230" y="1760" width="170" height="150" as="geometry" />
        </mxCell>
        <mxCell id="82-weyaPdRbn6HKz-jmK-144" value="环境-&amp;gt;特征映射" style="rounded=0;whiteSpace=wrap;html=1;fillColor=#f8cecc;strokeColor=#b85450;container=0;" vertex="1" parent="1">
          <mxGeometry x="-1205" y="1820" width="120" height="60" as="geometry" />
        </mxCell>
        <mxCell id="82-weyaPdRbn6HKz-jmK-146" value="&lt;span style=&quot;font-size: 18px;&quot;&gt;模型管理&lt;/span&gt;" style="rounded=0;whiteSpace=wrap;html=1;align=left;verticalAlign=top;fillColor=#d5e8d4;strokeColor=#82b366;container=0;" vertex="1" parent="1">
          <mxGeometry x="-1232.5" y="1255" width="170" height="290" as="geometry" />
        </mxCell>
        <mxCell id="82-weyaPdRbn6HKz-jmK-148" value="模型加载" style="rounded=0;whiteSpace=wrap;html=1;fillColor=#dae8fc;strokeColor=#6c8ebf;container=0;" vertex="1" parent="1">
          <mxGeometry x="-1207.5" y="1305" width="120" height="60" as="geometry" />
        </mxCell>
        <mxCell id="82-weyaPdRbn6HKz-jmK-149" value="模型配置" style="rounded=0;whiteSpace=wrap;html=1;fillColor=#dae8fc;strokeColor=#6c8ebf;container=0;" vertex="1" parent="1">
          <mxGeometry x="-1207.5" y="1385" width="120" height="60" as="geometry" />
        </mxCell>
        <mxCell id="82-weyaPdRbn6HKz-jmK-151" value="&lt;font style=&quot;font-size: 16px;&quot;&gt;Cli&lt;/font&gt;" style="rounded=0;whiteSpace=wrap;html=1;fillColor=#f8cecc;strokeColor=#b85450;" vertex="1" parent="1">
          <mxGeometry x="-1230" y="1140" width="150" height="50" as="geometry" />
        </mxCell>
        <mxCell id="82-weyaPdRbn6HKz-jmK-160" style="edgeStyle=orthogonalEdgeStyle;rounded=0;orthogonalLoop=1;jettySize=auto;html=1;entryX=0;entryY=0.5;entryDx=0;entryDy=0;" edge="1" parent="1" source="82-weyaPdRbn6HKz-jmK-152" target="82-weyaPdRbn6HKz-jmK-99">
          <mxGeometry relative="1" as="geometry" />
        </mxCell>
        <mxCell id="82-weyaPdRbn6HKz-jmK-161" value="Action" style="edgeLabel;html=1;align=center;verticalAlign=middle;resizable=0;points=[];" vertex="1" connectable="0" parent="82-weyaPdRbn6HKz-jmK-160">
          <mxGeometry x="-0.0605" y="4" relative="1" as="geometry">
            <mxPoint as="offset" />
          </mxGeometry>
        </mxCell>
        <mxCell id="82-weyaPdRbn6HKz-jmK-152" value="推理服务" style="rounded=0;whiteSpace=wrap;html=1;fillColor=#f8cecc;strokeColor=#b85450;container=0;" vertex="1" parent="1">
          <mxGeometry x="-1205" y="1467.5" width="120" height="60" as="geometry" />
        </mxCell>
        <mxCell id="82-weyaPdRbn6HKz-jmK-153" style="edgeStyle=orthogonalEdgeStyle;rounded=0;orthogonalLoop=1;jettySize=auto;html=1;entryX=0;entryY=0.5;entryDx=0;entryDy=0;" edge="1" parent="1" source="82-weyaPdRbn6HKz-jmK-65" target="82-weyaPdRbn6HKz-jmK-83">
          <mxGeometry relative="1" as="geometry">
            <Array as="points">
              <mxPoint x="-910" y="480" />
              <mxPoint x="-910" y="480" />
            </Array>
          </mxGeometry>
        </mxCell>
        <mxCell id="82-weyaPdRbn6HKz-jmK-154" value="第一步目标是支撑使用环境数据和模型推理结果控制机械臂运动" style="shape=note;whiteSpace=wrap;html=1;backgroundOutline=1;fontColor=#000000;darkOpacity=0.05;fillColor=#FFF9B2;strokeColor=none;fillStyle=solid;direction=west;gradientDirection=north;gradientColor=#FFF2A1;shadow=1;size=20;pointerEvents=1;" vertex="1" parent="1">
          <mxGeometry x="-1560" y="1190" width="140" height="160" as="geometry" />
        </mxCell>
      </root>
    </mxGraphModel>
  </diagram>
</mxfile>
